<?xml version="1.0"?>
<svg xmlns="http://www.w3.org/2000/svg" xmlns:xlink="http://www.w3.org/1999/xlink" xmlns:svgjs="http://svgjs.com/svgjs" version="1.1" width="512" height="512" x="0" y="0" viewBox="0 0 64 64" style="enable-background:new 0 0 512 512" xml:space="preserve" class=""><g><g xmlns="http://www.w3.org/2000/svg"><path d="m50.267 41.436c-.839-6.293-4.215-12.089-9.267-15.931v-4.321c0-7.479-2.913-14.51-8.201-19.799l-.092-.092c-.391-.391-1.023-.391-1.414 0l-.092.092c-5.288 5.288-8.201 12.32-8.201 19.799v4.321c-5.052 3.842-8.428 9.638-9.267 15.931l-.724 5.432c-.063.474.218.927.671 1.08.106.035.214.052.32.052.351 0 .687-.186.868-.504l1.023-1.791c1.492-2.61 4.157-4.318 7.109-4.639v.934c0 .552.448 1 1 1h1v3c0 .552.448 1 1 1h5v4h2v-4h5c.552 0 1-.448 1-1v-3h1c.552 0 1-.448 1-1v-.933c2.952.32 5.617 2.029 7.109 4.639l1.023 1.791c.182.317.517.503.868.503.106 0 .214-.017.32-.053.453-.153.734-.605.671-1.08zm-18.267-38.001c2.101 2.246 3.755 4.805 4.93 7.565h-9.86c1.175-2.76 2.829-5.319 4.93-7.565zm-16.425 39.316.14-1.051c.699-5.246 3.333-10.103 7.285-13.591v10.944c-2.863.256-5.519 1.587-7.425 3.698zm21.425 2.249h-10v-2h10zm2-4h-14v-19.816c0-2.824.452-5.578 1.313-8.184h11.375c.86 2.606 1.312 5.36 1.312 8.184zm2-1.946v-10.945c3.952 3.489 6.585 8.346 7.285 13.591l.14 1.051c-1.906-2.111-4.562-3.442-7.425-3.697z" fill="#01579b" data-original="#000000" style="" class=""/><path d="m32 19c-3.309 0-6 2.691-6 6s2.691 6 6 6 6-2.691 6-6-2.691-6-6-6zm0 10c-2.206 0-4-1.794-4-4s1.794-4 4-4 4 1.794 4 4-1.794 4-4 4z" fill="#01579b" data-original="#000000" style="" class=""/><path d="m36.832 48.445-1.664 1.109 1.063 1.595c.503.755.769 1.633.769 2.54 0 1.223-.476 2.373-1.341 3.238l-3.659 3.659-3.659-3.659c-.865-.865-1.341-2.015-1.341-3.238 0-.907.266-1.785.769-2.54l1.063-1.595-1.664-1.109-1.063 1.595c-.723 1.084-1.105 2.346-1.105 3.649 0 1.757.684 3.41 1.927 4.652l4.366 4.366c.195.195.451.293.707.293s.512-.098.707-.293l4.366-4.366c1.243-1.242 1.927-2.895 1.927-4.652 0-1.303-.382-2.565-1.105-3.649z" fill="#01579b" data-original="#000000" style="" class=""/></g></g></svg>
