<?xml version="1.0"?>
<svg xmlns="http://www.w3.org/2000/svg" xmlns:xlink="http://www.w3.org/1999/xlink" xmlns:svgjs="http://svgjs.com/svgjs" version="1.1" width="512" height="512" x="0" y="0" viewBox="0 0 512.032 512.032" style="enable-background:new 0 0 512 512" xml:space="preserve" class=""><g><g xmlns="http://www.w3.org/2000/svg"><path d="m428.702 7.78 7.759 28.957-320.556 85.41 7.77 28.998-57.955 15.53 7.765 28.978-28.978 7.765-15.529-57.956-28.978 7.765 38.823 144.889 28.978-7.765-15.529-57.956 28.978-7.765 7.765 28.978 57.956-15.529 7.749 28.919 63.964-16.861c4.04 5.982 9.48 10.945 15.845 14.416l-107.834 217.463h-35.695v30h54.305l95.695-192.985v162.985h-30v30h90v-30h-30v-162.985l95.695 192.985h54.305v-30h-35.695l-107.833-217.463c13.129-7.159 22.307-20.67 23.404-36.374l174.409-46.547 7.769 28.992 28.978-7.765-54.352-202.843zm-318.475 209.086-7.765-28.978 28.978-7.765 7.765 28.978zm42.432-73.464 233.59-62.239 23.302 86.963-116.678 31.139c-8.144-11.627-21.631-19.25-36.872-19.25-23.489 0-42.821 18.094-44.818 41.074l-35.219 9.284zm103.341 96.614c-8.271 0-15-6.729-15-15s6.729-15 15-15 15 6.729 15 15-6.729 15-15 15zm182.535-79.625-23.298-86.951 28.989-7.724 23.295 86.939z" fill="#01579b" data-original="#000000" style="" class=""/></g></g></svg>
